<svg width="126" height="48" viewBox="0 0 126 48" fill="none" xmlns="http://www.w3.org/2000/svg">
<path d="M21.088 38C20.928 38 20.8 37.9573 20.704 37.872C20.608 37.7867 20.5493 37.6693 20.528 37.52L18.624 27.264L18.608 27.136C18.608 27.04 18.64 26.96 18.704 26.896C18.7787 26.832 18.8587 26.8 18.944 26.8H20.352C20.6187 26.8 20.768 26.9067 20.8 27.12L22.128 34.368L23.568 29.68C23.6747 29.4133 23.8507 29.28 24.096 29.28H24.96C25.2267 29.28 25.3973 29.4133 25.472 29.68L26.928 34.352L28.256 27.12C28.2773 27.0027 28.32 26.9227 28.384 26.88C28.4587 26.8267 28.5653 26.8 28.704 26.8H30.112C30.1973 26.8 30.272 26.832 30.336 26.896C30.4 26.96 30.432 27.04 30.432 27.136C30.432 27.1893 30.4267 27.232 30.416 27.264L28.512 37.52C28.4587 37.84 28.272 38 27.952 38H26.88C26.7307 38 26.608 37.9627 26.512 37.888C26.416 37.8133 26.352 37.7173 26.32 37.6L24.528 32.256L22.736 37.6C22.6293 37.8667 22.4373 38 22.16 38H21.088ZM35.39 38.16C34.206 38.16 33.262 37.8187 32.558 37.136C31.8647 36.4427 31.4967 35.472 31.454 34.224L31.438 33.824L31.454 33.424C31.5073 32.208 31.8807 31.2533 32.574 30.56C33.278 29.8667 34.2167 29.52 35.39 29.52C36.6487 29.52 37.6193 29.904 38.302 30.672C38.9953 31.44 39.342 32.464 39.342 33.744V34.08C39.342 34.1867 39.3047 34.2773 39.23 34.352C39.1553 34.4267 39.0593 34.464 38.942 34.464H33.63V34.592C33.6513 35.1787 33.8113 35.6747 34.11 36.08C34.4193 36.4747 34.8407 36.672 35.374 36.672C36.0033 36.672 36.51 36.4267 36.894 35.936C36.99 35.8187 37.0647 35.744 37.118 35.712C37.182 35.68 37.2727 35.664 37.39 35.664H38.766C38.862 35.664 38.942 35.696 39.006 35.76C39.0807 35.8133 39.118 35.8827 39.118 35.968C39.118 36.224 38.9633 36.528 38.654 36.88C38.3553 37.2213 37.9233 37.52 37.358 37.776C36.7927 38.032 36.1367 38.16 35.39 38.16ZM37.166 33.12V33.072C37.166 32.4427 37.006 31.936 36.686 31.552C36.3767 31.168 35.9447 30.976 35.39 30.976C34.8353 30.976 34.4033 31.168 34.094 31.552C33.7847 31.936 33.63 32.4427 33.63 33.072V33.12H37.166ZM43.4564 38.16C42.9124 38.16 42.411 38.0533 41.9524 37.84C41.5044 37.616 41.147 37.3173 40.8804 36.944C40.6244 36.5707 40.4964 36.16 40.4964 35.712C40.4964 34.9867 40.7897 34.4 41.3764 33.952C41.963 33.504 42.7684 33.2 43.7924 33.04L45.9844 32.72V32.384C45.9844 31.9147 45.867 31.5627 45.6324 31.328C45.3977 31.0933 45.019 30.976 44.4964 30.976C44.1444 30.976 43.8564 31.0453 43.6324 31.184C43.419 31.312 43.2484 31.44 43.1204 31.568C42.9924 31.7067 42.907 31.7973 42.8644 31.84C42.8217 31.968 42.7417 32.032 42.6244 32.032H41.3924C41.2964 32.032 41.211 32 41.1364 31.936C41.0724 31.872 41.0404 31.7867 41.0404 31.68C41.051 31.4133 41.179 31.1093 41.4244 30.768C41.6804 30.4267 42.0697 30.1333 42.5924 29.888C43.115 29.6427 43.755 29.52 44.5124 29.52C45.771 29.52 46.6884 29.8027 47.2644 30.368C47.8404 30.9333 48.1284 31.6747 48.1284 32.592V37.616C48.1284 37.7227 48.091 37.8133 48.0164 37.888C47.9524 37.9627 47.8617 38 47.7444 38H46.4484C46.3417 38 46.251 37.9627 46.1764 37.888C46.1017 37.8133 46.0644 37.7227 46.0644 37.616V36.992C45.8297 37.3333 45.4937 37.616 45.0564 37.84C44.6297 38.0533 44.0964 38.16 43.4564 38.16ZM44.0004 36.64C44.587 36.64 45.067 36.448 45.4404 36.064C45.8137 35.68 46.0004 35.12 46.0004 34.384V34.048L44.4004 34.304C43.7817 34.4 43.3124 34.5547 42.9924 34.768C42.683 34.9813 42.5284 35.2427 42.5284 35.552C42.5284 35.8933 42.6724 36.16 42.9604 36.352C43.2484 36.544 43.595 36.64 44.0004 36.64ZM53.8629 38C52.8922 38 52.1615 37.7493 51.6709 37.248C51.1909 36.736 50.9509 35.9893 50.9509 35.008V31.376H49.6869C49.5802 31.376 49.4895 31.3387 49.4149 31.264C49.3402 31.1787 49.3029 31.0827 49.3029 30.976V30.064C49.3029 29.9573 49.3402 29.8667 49.4149 29.792C49.4895 29.7173 49.5802 29.68 49.6869 29.68H50.9509V27.024C50.9509 26.9067 50.9882 26.816 51.0629 26.752C51.1375 26.6773 51.2282 26.64 51.3349 26.64H52.6309C52.7482 26.64 52.8389 26.6773 52.9029 26.752C52.9775 26.816 53.0149 26.9067 53.0149 27.024V29.68H55.0149C55.1322 29.68 55.2229 29.7173 55.2869 29.792C55.3615 29.856 55.3989 29.9467 55.3989 30.064V30.976C55.3989 31.0933 55.3615 31.1893 55.2869 31.264C55.2122 31.3387 55.1215 31.376 55.0149 31.376H53.0149V34.848C53.0149 35.3067 53.0949 35.6533 53.2549 35.888C53.4149 36.1227 53.6815 36.24 54.0549 36.24H55.1589C55.2655 36.24 55.3562 36.2773 55.4309 36.352C55.5055 36.4267 55.5429 36.5173 55.5429 36.624V37.616C55.5429 37.7227 55.5055 37.8133 55.4309 37.888C55.3669 37.9627 55.2762 38 55.1589 38H53.8629ZM57.3623 38C57.2556 38 57.1649 37.9627 57.0903 37.888C57.0156 37.8133 56.9783 37.7227 56.9783 37.616V27.024C56.9783 26.9067 57.0156 26.816 57.0903 26.752C57.1649 26.6773 57.2556 26.64 57.3623 26.64H58.7863C58.9036 26.64 58.9943 26.6773 59.0583 26.752C59.1329 26.816 59.1703 26.9067 59.1703 27.024V30.672C59.8103 29.904 60.6743 29.52 61.7623 29.52C62.7436 29.52 63.5276 29.8453 64.1143 30.496C64.7009 31.136 64.9943 32.0107 64.9943 33.12V37.616C64.9943 37.7227 64.9569 37.8133 64.8823 37.888C64.8183 37.9627 64.7276 38 64.6103 38H63.1703C63.0636 38 62.9729 37.9627 62.8983 37.888C62.8236 37.8133 62.7863 37.7227 62.7863 37.616V33.216C62.7863 32.5867 62.6316 32.1013 62.3223 31.76C62.0236 31.408 61.5863 31.232 61.0103 31.232C60.4449 31.232 59.9969 31.408 59.6663 31.76C59.3356 32.112 59.1703 32.5973 59.1703 33.216V37.616C59.1703 37.7227 59.1329 37.8133 59.0583 37.888C58.9943 37.9627 58.9036 38 58.7863 38H57.3623ZM70.6088 38.16C69.4248 38.16 68.4808 37.8187 67.7768 37.136C67.0834 36.4427 66.7154 35.472 66.6728 34.224L66.6568 33.824L66.6728 33.424C66.7261 32.208 67.0994 31.2533 67.7928 30.56C68.4968 29.8667 69.4354 29.52 70.6088 29.52C71.8674 29.52 72.8381 29.904 73.5208 30.672C74.2141 31.44 74.5608 32.464 74.5608 33.744V34.08C74.5608 34.1867 74.5234 34.2773 74.4488 34.352C74.3741 34.4267 74.2781 34.464 74.1608 34.464H68.8488V34.592C68.8701 35.1787 69.0301 35.6747 69.3288 36.08C69.6381 36.4747 70.0594 36.672 70.5928 36.672C71.2221 36.672 71.7288 36.4267 72.1128 35.936C72.2088 35.8187 72.2834 35.744 72.3368 35.712C72.4008 35.68 72.4914 35.664 72.6088 35.664H73.9848C74.0808 35.664 74.1608 35.696 74.2248 35.76C74.2994 35.8133 74.3368 35.8827 74.3368 35.968C74.3368 36.224 74.1821 36.528 73.8728 36.88C73.5741 37.2213 73.1421 37.52 72.5768 37.776C72.0114 38.032 71.3554 38.16 70.6088 38.16ZM72.3848 33.12V33.072C72.3848 32.4427 72.2248 31.936 71.9048 31.552C71.5954 31.168 71.1634 30.976 70.6088 30.976C70.0541 30.976 69.6221 31.168 69.3128 31.552C69.0034 31.936 68.8488 32.4427 68.8488 33.072V33.12H72.3848ZM76.6431 38C76.5365 38 76.4458 37.9627 76.3711 37.888C76.2965 37.8133 76.2591 37.7227 76.2591 37.616V30.08C76.2591 29.9733 76.2965 29.8827 76.3711 29.808C76.4458 29.7227 76.5365 29.68 76.6431 29.68H77.9391C78.0565 29.68 78.1525 29.7173 78.2271 29.792C78.3018 29.8667 78.3391 29.9627 78.3391 30.08V30.736C78.5951 30.3947 78.9151 30.1333 79.2991 29.952C79.6938 29.7707 80.1418 29.68 80.6431 29.68H81.2991C81.4165 29.68 81.5071 29.7173 81.5711 29.792C81.6458 29.856 81.6831 29.9467 81.6831 30.064V31.216C81.6831 31.3227 81.6458 31.4133 81.5711 31.488C81.5071 31.5627 81.4165 31.6 81.2991 31.6H80.0511C79.5498 31.6 79.1551 31.744 78.8671 32.032C78.5791 32.32 78.4351 32.7147 78.4351 33.216V37.616C78.4351 37.7227 78.3978 37.8133 78.3231 37.888C78.2485 37.9627 78.1525 38 78.0351 38H76.6431ZM86.8195 38C86.7128 38 86.6222 37.9627 86.5475 37.888C86.4728 37.8133 86.4355 37.7227 86.4355 37.616V27.2C86.4355 27.0827 86.4675 26.9867 86.5315 26.912C86.6062 26.8373 86.7022 26.8 86.8195 26.8H90.7235C93.8595 26.8 95.4595 28.2507 95.5235 31.152C95.5448 31.7707 95.5555 32.1867 95.5555 32.4C95.5555 32.6027 95.5448 33.0133 95.5235 33.632C95.4808 35.1253 95.0808 36.2293 94.3235 36.944C93.5662 37.648 92.3928 38 90.8035 38H86.8195ZM90.7235 36.16C91.6195 36.16 92.2648 35.9627 92.6595 35.568C93.0542 35.1627 93.2622 34.5013 93.2835 33.584C93.3048 32.944 93.3155 32.544 93.3155 32.384C93.3155 32.2133 93.3048 31.8187 93.2835 31.2C93.2622 30.3253 93.0382 29.68 92.6115 29.264C92.1955 28.848 91.5395 28.64 90.6435 28.64H88.6595V36.16H90.7235ZM97.8135 28.304C97.7068 28.304 97.6162 28.2667 97.5415 28.192C97.4668 28.1173 97.4295 28.0267 97.4295 27.92V26.768C97.4295 26.6613 97.4668 26.5707 97.5415 26.496C97.6162 26.4213 97.7068 26.384 97.8135 26.384H99.2695C99.3762 26.384 99.4668 26.4213 99.5415 26.496C99.6268 26.5707 99.6695 26.6613 99.6695 26.768V27.92C99.6695 28.0267 99.6322 28.1173 99.5575 28.192C99.4828 28.2667 99.3868 28.304 99.2695 28.304H97.8135ZM97.8775 38C97.7708 38 97.6802 37.9627 97.6055 37.888C97.5308 37.8133 97.4935 37.7227 97.4935 37.616V30.064C97.4935 29.9573 97.5308 29.8667 97.6055 29.792C97.6802 29.7173 97.7708 29.68 97.8775 29.68H99.2055C99.3228 29.68 99.4135 29.7173 99.4775 29.792C99.5522 29.856 99.5895 29.9467 99.5895 30.064V37.616C99.5895 37.7227 99.5522 37.8133 99.4775 37.888C99.4135 37.9627 99.3228 38 99.2055 38H97.8775ZM104.128 38.16C103.584 38.16 103.083 38.0533 102.624 37.84C102.176 37.616 101.819 37.3173 101.552 36.944C101.296 36.5707 101.168 36.16 101.168 35.712C101.168 34.9867 101.462 34.4 102.048 33.952C102.635 33.504 103.44 33.2 104.464 33.04L106.656 32.72V32.384C106.656 31.9147 106.539 31.5627 106.304 31.328C106.07 31.0933 105.691 30.976 105.168 30.976C104.816 30.976 104.528 31.0453 104.304 31.184C104.091 31.312 103.92 31.44 103.792 31.568C103.664 31.7067 103.579 31.7973 103.536 31.84C103.494 31.968 103.414 32.032 103.296 32.032H102.064C101.968 32.032 101.883 32 101.808 31.936C101.744 31.872 101.712 31.7867 101.712 31.68C101.723 31.4133 101.851 31.1093 102.096 30.768C102.352 30.4267 102.742 30.1333 103.264 29.888C103.787 29.6427 104.427 29.52 105.184 29.52C106.443 29.52 107.36 29.8027 107.936 30.368C108.512 30.9333 108.8 31.6747 108.8 32.592V37.616C108.8 37.7227 108.763 37.8133 108.688 37.888C108.624 37.9627 108.534 38 108.416 38H107.12C107.014 38 106.923 37.9627 106.848 37.888C106.774 37.8133 106.736 37.7227 106.736 37.616V36.992C106.502 37.3333 106.166 37.616 105.728 37.84C105.302 38.0533 104.768 38.16 104.128 38.16ZM104.672 36.64C105.259 36.64 105.739 36.448 106.112 36.064C106.486 35.68 106.672 35.12 106.672 34.384V34.048L105.072 34.304C104.454 34.4 103.984 34.5547 103.664 34.768C103.355 34.9813 103.2 35.2427 103.2 35.552C103.2 35.8933 103.344 36.16 103.632 36.352C103.92 36.544 104.267 36.64 104.672 36.64ZM111.237 38C111.13 38 111.04 37.9627 110.965 37.888C110.89 37.8133 110.853 37.7227 110.853 37.616V30.08C110.853 29.9733 110.89 29.8827 110.965 29.808C111.04 29.7227 111.13 29.68 111.237 29.68H112.533C112.65 29.68 112.746 29.7173 112.821 29.792C112.896 29.8667 112.933 29.9627 112.933 30.08V30.736C113.189 30.3947 113.509 30.1333 113.893 29.952C114.288 29.7707 114.736 29.68 115.237 29.68H115.893C116.01 29.68 116.101 29.7173 116.165 29.792C116.24 29.856 116.277 29.9467 116.277 30.064V31.216C116.277 31.3227 116.24 31.4133 116.165 31.488C116.101 31.5627 116.01 31.6 115.893 31.6H114.645C114.144 31.6 113.749 31.744 113.461 32.032C113.173 32.32 113.029 32.7147 113.029 33.216V37.616C113.029 37.7227 112.992 37.8133 112.917 37.888C112.842 37.9627 112.746 38 112.629 38H111.237ZM119.029 41.04C118.943 41.04 118.869 41.008 118.805 40.944C118.741 40.88 118.709 40.8053 118.709 40.72C118.709 40.624 118.73 40.5387 118.773 40.464L120.021 37.504L116.949 30.256C116.906 30.16 116.885 30.0853 116.885 30.032C116.895 29.936 116.933 29.856 116.997 29.792C117.061 29.7173 117.141 29.68 117.237 29.68H118.533C118.735 29.68 118.879 29.7813 118.965 29.984L121.093 35.216L123.285 29.984C123.37 29.7813 123.514 29.68 123.717 29.68H124.997C125.082 29.68 125.157 29.712 125.221 29.776C125.295 29.84 125.333 29.9147 125.333 30C125.333 30.0747 125.311 30.16 125.269 30.256L120.741 40.736C120.645 40.9387 120.495 41.04 120.293 41.04H119.029Z" fill="#5A5D67"/>
<ellipse opacity="0.2" cx="23.5" cy="24" rx="23.5" ry="24" fill="#198BBC"/>
</svg>
